<svg height="597pt" viewBox="-18 -28 597.33331 597" width="597pt" xmlns="http://www.w3.org/2000/svg"><path d="m480 459.5h80v80h-80zm0 0"/><path d="m390 239.5h100v100h-100zm0 0"/><path d="m320 459.5h80v80h-80zm0 0"/><path d="m0 459.5h80v80h-80zm0 0"/><path d="m70 239.5h100v100h-100zm0 0"/><path d="m160 459.5h80v80h-80zm0 0"/><path d="m220-.5h120v120h-120zm0 0"/><path d="m430 219.5h20v-40c0-5.523438-4.476562-10-10-10h-150v-30h-20v30h-150c-5.523438 0-10 4.476562-10 10v40h20v-30h300zm0 0"/><path d="m190 439.5h20v-40c0-5.523438-4.476562-10-10-10h-70v-30h-20v30h-70c-5.523438 0-10 4.476562-10 10v40h20v-30h140zm0 0"/><path d="m510 439.5h20v-40c0-5.523438-4.476562-10-10-10h-70v-30h-20v30h-70c-5.523438 0-10 4.476562-10 10v40h20v-30h140zm0 0"/></svg>