<svg id="amvara_web_logo" xmlns="http://www.w3.org/2000/svg" viewBox="0 0 439.77 290.21"><defs><style>.cls-1{fill:#f1162f;}.cls-2{fill:#00234d;}</style></defs><title>amvara_web_logo</title><polygon class="cls-1" points="238.61 53.65 258.34 107.1 264.35 107.1 244.53 53.65 238.61 53.65"/><polygon class="cls-1" points="244.45 53.65 224.72 107.1 218.71 107.1 238.53 53.65 244.45 53.65"/><polygon class="cls-1" points="198.86 53.65 218.59 107.11 224.6 107.11 204.78 53.66 198.86 53.65"/><polygon class="cls-1" points="204.7 53.65 184.97 107.11 178.96 107.11 198.78 53.66 204.7 53.65"/><polygon class="cls-1" points="218.74 0 238.47 53.45 244.48 53.45 224.66 0 218.74 0"/><polygon class="cls-1" points="224.58 0 204.85 53.45 198.84 53.45 218.66 0 224.58 0"/><path class="cls-2" d="M147.26,327.46l-18.61-51h-.3q.52,6.06.52,14.4v36.6H123V269.93h9.6L150,317.39h.3l17.52-47.46h9.53v57.53h-6.38V290.39q0-6.37.53-13.85h-.3L152.4,327.46Z" transform="translate(-41.65 -37.25)"/><path class="cls-2" d="M250.57,269.93h6.87l-19.77,57.53h-6.3L211.7,269.93h6.75l12.61,37.23a108.51,108.51,0,0,1,3.45,12.47A108.1,108.1,0,0,1,238,306.92Z" transform="translate(-41.65 -37.25)"/><path class="cls-2" d="M373.75,303.54v23.93h-6.38V269.93h15q10.09,0,14.91,4.05t4.82,12.2q0,11.41-11,15.43L406,327.46h-7.54L385.2,303.54Zm0-5.75h8.74q6.75,0,9.9-2.81t3.15-8.44q0-5.71-3.21-8.22T382,275.79h-8.29Z" transform="translate(-41.65 -37.25)"/><path class="cls-2" d="M292.73,327.46h-6.87l19.77-57.53h6.3l19.66,57.53h-6.75l-12.61-37.23a108.51,108.51,0,0,1-3.45-12.47,108.1,108.1,0,0,1-3.53,12.71Z" transform="translate(-41.65 -37.25)"/><path class="cls-2" d="M442.56,327.46h-6.87l19.77-57.53h6.3l19.66,57.53h-6.75l-12.61-37.23a108.51,108.51,0,0,1-3.45-12.47,108.1,108.1,0,0,1-3.53,12.71Z" transform="translate(-41.65 -37.25)"/><path class="cls-2" d="M48.52,327.46H41.65l19.77-57.53h6.3l19.66,57.53H80.63L68,290.23a108.51,108.51,0,0,1-3.45-12.47A108.1,108.1,0,0,1,61,290.47Z" transform="translate(-41.65 -37.25)"/></svg>